<svg xmlns="http://www.w3.org/2000/svg" width="215" height="48" viewBox="0 0 215 48">
    <g fill="none" fill-rule="evenodd">
        <path fill="#FFF" d="M114.037 0l-7.023 29.453L98.838.033l-.135.041.016-.074H89.29l-9.86 47.558h8.859l6.228-31.111 9.09 31.07.01-.004-.01.045h9.427L122.895 0z"/>
        <path fill="#FF345D" d="M129.918 0l-4.238 20.44h-.042l-1.833 8.838h20.348l-3.775 18.203h9.428l3.774-18.203h6.84l1.832-8.838h-6.84L159.647.015h-9.427l-4.235 20.425h-10.878L139.345 0z"/>
        <path fill="#FFF" d="M172.722.015l-9.841 47.466h9.427L182.149.015zM188.693.012l-1.832 8.839h8.427l-8.009 38.63h9.427l8.01-38.63h8.426l1.833-8.839zM72.43 0l-8.05 38.826H52.618L60.668 0H51.24L42.2 43.602l4.22 3.956h21.558l4.99-4.678L81.857 0zM9.841.015L0 47.481h9.428l3.8-18.336h7.45l6.148 18.395h9.427l-6.147-18.395h4.763l4.044-3.793 1.047-5.045h-.043l3.345-15.974-4.544-4.26.036-.033h-19.49l.005-.025H9.84zm7.59 8.863H32.86l-2.37 11.429H15.061l2.37-11.43z"/>
    </g>
</svg>
